<svg width="244" height="65" viewBox="0 0 244 65" fill="none" xmlns="http://www.w3.org/2000/svg">
<path d="M92.042 26C91.8642 26 91.7753 25.9111 91.7753 25.7333V7.6C91.7753 7.42222 91.8642 7.33333 92.042 7.33333H93.402C93.5798 7.33333 93.6687 7.42222 93.6687 7.6V16.4533C93.6687 16.4889 93.6865 16.5156 93.722 16.5333C93.7576 16.5333 93.7842 16.5156 93.802 16.48L100.575 7.49333C100.646 7.38667 100.762 7.33333 100.922 7.33333H102.415C102.522 7.33333 102.593 7.36889 102.629 7.44C102.664 7.49333 102.646 7.56444 102.575 7.65333L97.242 14.96C97.2242 15.0133 97.2242 15.0667 97.242 15.12L103.055 25.68C103.091 25.7511 103.109 25.8044 103.109 25.84C103.109 25.9467 103.029 26 102.869 26H101.322C101.162 26 101.055 25.9378 101.002 25.8133L95.9353 16.6133C95.8998 16.5244 95.8553 16.5244 95.802 16.6133L93.722 19.2533C93.6865 19.2889 93.6687 19.3333 93.6687 19.3867V25.7333C93.6687 25.9111 93.5798 26 93.402 26H92.042ZM110.746 26.2133C109.449 26.2133 108.382 25.8667 107.546 25.1733C106.711 24.4622 106.204 23.5111 106.026 22.32C105.92 21.4311 105.866 20.4 105.866 19.2267C105.866 18.0533 105.92 17.04 106.026 16.1867C106.186 15.0133 106.684 14.0711 107.52 13.36C108.373 12.6489 109.449 12.2933 110.746 12.2933C112.044 12.2933 113.111 12.6489 113.946 13.36C114.8 14.0711 115.306 15.0133 115.466 16.1867C115.573 16.8978 115.626 17.9111 115.626 19.2267C115.626 20.5778 115.573 21.6089 115.466 22.32C115.306 23.5111 114.8 24.4622 113.946 25.1733C113.111 25.8667 112.044 26.2133 110.746 26.2133ZM110.746 24.56C111.511 24.56 112.151 24.3289 112.666 23.8667C113.2 23.3867 113.52 22.7556 113.626 21.9733C113.697 21.3156 113.733 20.4089 113.733 19.2533C113.733 18.08 113.697 17.1733 113.626 16.5333C113.537 15.7511 113.226 15.1289 112.693 14.6667C112.177 14.1867 111.529 13.9467 110.746 13.9467C109.964 13.9467 109.315 14.1867 108.8 14.6667C108.284 15.1289 107.973 15.7511 107.866 16.5333C107.795 17.1733 107.76 18.08 107.76 19.2533C107.76 20.4267 107.795 21.3333 107.866 21.9733C107.955 22.7556 108.257 23.3867 108.773 23.8667C109.306 24.3289 109.964 24.56 110.746 24.56ZM120.012 26C119.834 26 119.746 25.9111 119.746 25.7333V7.6C119.746 7.42222 119.834 7.33333 120.012 7.33333H121.372C121.55 7.33333 121.639 7.42222 121.639 7.6V25.7333C121.639 25.9111 121.55 26 121.372 26H120.012ZM127.347 10.0533C126.903 10.0533 126.538 9.91111 126.254 9.62667C125.987 9.34222 125.854 8.98667 125.854 8.56C125.854 8.11556 125.987 7.76 126.254 7.49333C126.538 7.20889 126.903 7.06667 127.347 7.06667C127.774 7.06667 128.129 7.20889 128.414 7.49333C128.698 7.76 128.84 8.11556 128.84 8.56C128.84 8.98667 128.698 9.34222 128.414 9.62667C128.129 9.91111 127.774 10.0533 127.347 10.0533ZM126.627 26C126.449 26 126.36 25.9111 126.36 25.7333V12.7733C126.36 12.5956 126.449 12.5067 126.627 12.5067H127.987C128.165 12.5067 128.254 12.5956 128.254 12.7733V25.7333C128.254 25.9111 128.165 26 127.987 26H126.627ZM138.345 12.32C139.589 12.32 140.567 12.72 141.278 13.52C142.007 14.3022 142.372 15.3778 142.372 16.7467V25.7333C142.372 25.9111 142.283 26 142.105 26H140.745C140.567 26 140.478 25.9111 140.478 25.7333V17.0133C140.478 16.0889 140.238 15.3511 139.758 14.8C139.278 14.2489 138.62 13.9733 137.785 13.9733C136.949 13.9733 136.274 14.2578 135.758 14.8267C135.26 15.3778 135.012 16.1244 135.012 17.0667V25.7333C135.012 25.9111 134.923 26 134.745 26H133.385C133.207 26 133.118 25.9111 133.118 25.7333V12.7733C133.118 12.5956 133.207 12.5067 133.385 12.5067H134.745C134.923 12.5067 135.012 12.5956 135.012 12.7733V13.8133C135.012 13.8489 135.02 13.8756 135.038 13.8933C135.074 13.9111 135.109 13.9022 135.145 13.8667C135.838 12.8356 136.905 12.32 138.345 12.32ZM156.117 16.2133C156.295 17.12 156.383 18.1778 156.383 19.3867C156.383 20.4711 156.268 21.5022 156.037 22.48C155.717 23.7778 155.219 24.7289 154.543 25.3333C153.886 25.92 152.997 26.2133 151.877 26.2133C150.472 26.2133 149.45 25.7067 148.81 24.6933C148.792 24.64 148.766 24.6222 148.73 24.64C148.695 24.64 148.677 24.6667 148.677 24.72V25.7333C148.677 25.9111 148.588 26 148.41 26H147.05C146.872 26 146.783 25.9111 146.783 25.7333V7.6C146.783 7.42222 146.872 7.33333 147.05 7.33333H148.41C148.588 7.33333 148.677 7.42222 148.677 7.6V13.7867C148.677 13.84 148.695 13.8756 148.73 13.8933C148.766 13.8933 148.792 13.8667 148.81 13.8133C149.077 13.3156 149.441 12.9422 149.903 12.6933C150.383 12.4444 150.997 12.32 151.743 12.32C152.935 12.32 153.886 12.64 154.597 13.28C155.326 13.9022 155.832 14.88 156.117 16.2133ZM154.063 22.5867C154.33 21.7867 154.463 20.6756 154.463 19.2533C154.463 17.8133 154.295 16.6489 153.957 15.76C153.459 14.5511 152.623 13.9467 151.45 13.9467C150.846 13.9467 150.366 14.1067 150.01 14.4267C149.655 14.7467 149.37 15.2089 149.157 15.8133C148.855 16.6311 148.703 17.7778 148.703 19.2533C148.703 20.6933 148.837 21.8133 149.103 22.6133C149.317 23.2533 149.61 23.7422 149.983 24.08C150.375 24.4178 150.881 24.5867 151.503 24.5867C152.161 24.5867 152.695 24.4178 153.103 24.08C153.512 23.7422 153.832 23.2444 154.063 22.5867ZM164.929 24.56C165.605 24.56 166.183 24.3911 166.663 24.0533C167.16 23.6978 167.516 23.2267 167.729 22.64C167.783 22.48 167.889 22.4178 168.049 22.4533L169.276 22.6933C169.365 22.7111 169.418 22.7556 169.436 22.8267C169.472 22.88 169.48 22.9422 169.463 23.0133C169.16 24.0089 168.609 24.7911 167.809 25.36C167.009 25.9289 166.04 26.2133 164.903 26.2133C163.605 26.2133 162.547 25.8756 161.729 25.2C160.912 24.5067 160.405 23.5733 160.209 22.4C160.138 21.9556 160.094 21.4311 160.076 20.8267C160.058 20.2222 160.049 19.7244 160.049 19.3333C160.049 18.9244 160.049 18.64 160.049 18.48C160.049 17.5733 160.085 16.8356 160.156 16.2667C160.298 15.0756 160.787 14.1156 161.623 13.3867C162.476 12.6578 163.543 12.2933 164.823 12.2933C166.192 12.2933 167.303 12.6844 168.156 13.4667C169.009 14.2489 169.489 15.28 169.596 16.56C169.649 17.1467 169.676 18.2222 169.676 19.7867C169.676 19.9644 169.587 20.0533 169.409 20.0533H162.049C161.978 20.0533 161.943 20.0889 161.943 20.16C161.943 20.7111 161.96 21.3244 161.996 22C162.085 22.7644 162.387 23.3867 162.903 23.8667C163.436 24.3289 164.112 24.56 164.929 24.56ZM164.849 13.9467C164.049 13.9467 163.392 14.1867 162.876 14.6667C162.378 15.1289 162.085 15.7422 161.996 16.5067C161.96 17.2533 161.943 17.8756 161.943 18.3733C161.943 18.4444 161.978 18.48 162.049 18.48H167.676C167.747 18.48 167.783 18.4444 167.783 18.3733C167.783 17.8578 167.747 17.2444 167.676 16.5333C167.587 15.7689 167.285 15.1467 166.769 14.6667C166.272 14.1867 165.632 13.9467 164.849 13.9467ZM178.709 12.3733C179.242 12.3733 179.695 12.48 180.069 12.6933C180.193 12.7467 180.238 12.8533 180.202 13.0133L179.882 14.4C179.864 14.5778 179.758 14.6311 179.562 14.56C179.278 14.4356 178.966 14.3733 178.629 14.3733L178.309 14.4C177.526 14.4178 176.878 14.7556 176.362 15.4133C175.846 16.0711 175.589 16.8711 175.589 17.8133V25.7333C175.589 25.9111 175.5 26 175.322 26H173.962C173.784 26 173.695 25.9111 173.695 25.7333V12.7733C173.695 12.5956 173.784 12.5067 173.962 12.5067H175.322C175.5 12.5067 175.589 12.5956 175.589 12.7733V14.5067C175.589 14.56 175.598 14.5867 175.615 14.5867C175.651 14.5867 175.678 14.5689 175.695 14.5333C175.998 13.8578 176.398 13.3333 176.895 12.96C177.411 12.5689 178.015 12.3733 178.709 12.3733ZM190.316 12.7733C190.316 12.5956 190.405 12.5067 190.583 12.5067H191.943C192.121 12.5067 192.21 12.5956 192.21 12.7733V25.6267C192.21 29.6444 190.014 31.5556 185.623 31.36C185.445 31.3422 185.356 31.2444 185.356 31.0667L185.383 29.8667C185.383 29.7778 185.41 29.7067 185.463 29.6533C185.516 29.6178 185.579 29.6089 185.65 29.6267C187.321 29.68 188.512 29.3689 189.223 28.6933C189.952 28.0356 190.316 26.9778 190.316 25.52V24.64C190.316 24.6044 190.299 24.5778 190.263 24.56C190.245 24.5422 190.219 24.5511 190.183 24.5867C189.49 25.5822 188.459 26.08 187.09 26.08C185.952 26.08 185.001 25.7422 184.236 25.0667C183.472 24.3733 183.001 23.44 182.823 22.2667C182.716 21.4844 182.663 20.48 182.663 19.2533C182.663 17.92 182.725 16.8711 182.85 16.1067C182.992 14.9511 183.436 14.0267 184.183 13.3333C184.947 12.64 185.899 12.2933 187.036 12.2933C188.423 12.2933 189.472 12.7822 190.183 13.76C190.219 13.7956 190.245 13.8133 190.263 13.8133C190.299 13.7956 190.316 13.7689 190.316 13.7333V12.7733ZM190.236 21.8933C190.29 21.2 190.316 20.3111 190.316 19.2267C190.316 18.16 190.29 17.2533 190.236 16.5067C190.165 15.76 189.881 15.1467 189.383 14.6667C188.903 14.1867 188.281 13.9467 187.516 13.9467C186.752 13.9467 186.112 14.1867 185.596 14.6667C185.099 15.1467 184.796 15.76 184.69 16.5067C184.619 17.1467 184.583 18.0533 184.583 19.2267C184.583 20.1156 184.619 21.0044 184.69 21.8933C184.779 22.64 185.081 23.2533 185.596 23.7333C186.112 24.2133 186.752 24.4533 187.516 24.4533C188.281 24.4533 188.903 24.2133 189.383 23.7333C189.881 23.2533 190.165 22.64 190.236 21.8933ZM97.642 40.3067C99.0642 40.3067 100.211 40.7867 101.082 41.7467C101.971 42.6889 102.415 43.9422 102.415 45.5067C102.415 47.0533 101.971 48.2978 101.082 49.24C100.211 50.1644 99.0642 50.6267 97.642 50.6267H93.6687C93.5976 50.6267 93.562 50.6622 93.562 50.7333V58.7333C93.562 58.9111 93.4731 59 93.2953 59H91.9353C91.7576 59 91.6687 58.9111 91.6687 58.7333V40.5733C91.6687 40.3956 91.7576 40.3067 91.9353 40.3067H97.642ZM97.402 49.0533C98.3442 49.0533 99.0998 48.7333 99.6687 48.0933C100.238 47.4533 100.522 46.6 100.522 45.5333C100.522 44.4489 100.238 43.5867 99.6687 42.9467C99.0998 42.2889 98.3442 41.96 97.402 41.96H93.6687C93.5976 41.96 93.562 41.9956 93.562 42.0667V48.9467C93.562 49.0178 93.5976 49.0533 93.6687 49.0533H97.402ZM111.231 45.32C112.476 45.32 113.454 45.72 114.165 46.52C114.894 47.3022 115.258 48.3778 115.258 49.7467V58.7333C115.258 58.9111 115.169 59 114.991 59H113.631C113.454 59 113.365 58.9111 113.365 58.7333V50.0133C113.365 49.0889 113.125 48.3511 112.645 47.8C112.165 47.2489 111.507 46.9733 110.671 46.9733C109.836 46.9733 109.16 47.2578 108.645 47.8267C108.147 48.3778 107.898 49.1244 107.898 50.0667V58.7333C107.898 58.9111 107.809 59 107.631 59H106.271C106.094 59 106.005 58.9111 106.005 58.7333V40.6C106.005 40.4222 106.094 40.3333 106.271 40.3333H107.631C107.809 40.3333 107.898 40.4222 107.898 40.6V46.8133C107.898 46.8489 107.907 46.8756 107.925 46.8933C107.96 46.9111 107.996 46.9022 108.031 46.8667C108.725 45.8356 109.791 45.32 111.231 45.32ZM120.896 43.0533C120.452 43.0533 120.087 42.9111 119.803 42.6267C119.536 42.3422 119.403 41.9867 119.403 41.56C119.403 41.1156 119.536 40.76 119.803 40.4933C120.087 40.2089 120.452 40.0667 120.896 40.0667C121.323 40.0667 121.678 40.2089 121.963 40.4933C122.247 40.76 122.389 41.1156 122.389 41.56C122.389 41.9867 122.247 42.3422 121.963 42.6267C121.678 42.9111 121.323 43.0533 120.896 43.0533ZM120.176 59C119.998 59 119.909 58.9111 119.909 58.7333V45.7733C119.909 45.5956 119.998 45.5067 120.176 45.5067H121.536C121.714 45.5067 121.803 45.5956 121.803 45.7733V58.7333C121.803 58.9111 121.714 59 121.536 59H120.176ZM126.854 59C126.676 59 126.587 58.9111 126.587 58.7333V40.6C126.587 40.4222 126.676 40.3333 126.854 40.3333H128.214C128.392 40.3333 128.481 40.4222 128.481 40.6V58.7333C128.481 58.9111 128.392 59 128.214 59H126.854ZM138.189 45.32C139.433 45.32 140.411 45.72 141.122 46.52C141.851 47.3022 142.215 48.3778 142.215 49.7467V58.7333C142.215 58.9111 142.126 59 141.949 59H140.589C140.411 59 140.322 58.9111 140.322 58.7333V50.0133C140.322 49.0889 140.082 48.3511 139.602 47.8C139.122 47.2489 138.464 46.9733 137.629 46.9733C136.793 46.9733 136.118 47.2578 135.602 47.8267C135.104 48.3778 134.855 49.1244 134.855 50.0667V58.7333C134.855 58.9111 134.766 59 134.589 59H133.229C133.051 59 132.962 58.9111 132.962 58.7333V40.6C132.962 40.4222 133.051 40.3333 133.229 40.3333H134.589C134.766 40.3333 134.855 40.4222 134.855 40.6V46.8133C134.855 46.8489 134.864 46.8756 134.882 46.8933C134.918 46.9111 134.953 46.9022 134.989 46.8667C135.682 45.8356 136.749 45.32 138.189 45.32ZM150.947 45.2933C152.369 45.2933 153.48 45.7022 154.28 46.52C155.098 47.3378 155.507 48.4222 155.507 49.7733V58.7333C155.507 58.9111 155.418 59 155.24 59H153.88C153.702 59 153.613 58.9111 153.613 58.7333V57.7733C153.613 57.7378 153.595 57.7111 153.56 57.6933C153.542 57.6756 153.515 57.6844 153.48 57.72C153.089 58.2178 152.591 58.5911 151.987 58.84C151.382 59.0889 150.707 59.2133 149.96 59.2133C148.84 59.2133 147.88 58.9111 147.08 58.3067C146.298 57.7022 145.907 56.7156 145.907 55.3467C145.907 53.9244 146.36 52.8489 147.267 52.12C148.191 51.3733 149.444 51 151.027 51H153.507C153.578 51 153.613 50.9644 153.613 50.8933V49.88C153.613 48.9733 153.382 48.2622 152.92 47.7467C152.475 47.2133 151.809 46.9467 150.92 46.9467C150.227 46.9467 149.649 47.1244 149.187 47.48C148.724 47.8178 148.449 48.2711 148.36 48.84C148.342 49 148.244 49.08 148.067 49.08L146.6 49C146.511 49 146.44 48.9733 146.387 48.92C146.351 48.8667 146.342 48.8044 146.36 48.7333C146.484 47.7022 146.964 46.8756 147.8 46.2533C148.653 45.6133 149.702 45.2933 150.947 45.2933ZM150.333 57.56C151.222 57.56 151.987 57.32 152.627 56.84C153.284 56.3422 153.613 55.6578 153.613 54.7867V52.6267C153.613 52.5556 153.578 52.52 153.507 52.52H151.16C150.147 52.52 149.338 52.76 148.733 53.24C148.129 53.7022 147.827 54.3689 147.827 55.24C147.827 56.0222 148.058 56.6089 148.52 57C148.982 57.3733 149.587 57.56 150.333 57.56ZM164.758 45.3733C165.291 45.3733 165.744 45.48 166.118 45.6933C166.242 45.7467 166.287 45.8533 166.251 46.0133L165.931 47.4C165.913 47.5778 165.807 47.6311 165.611 47.56C165.327 47.4356 165.015 47.3733 164.678 47.3733L164.358 47.4C163.575 47.4178 162.927 47.7556 162.411 48.4133C161.895 49.0711 161.638 49.8711 161.638 50.8133V58.7333C161.638 58.9111 161.549 59 161.371 59H160.011C159.833 59 159.744 58.9111 159.744 58.7333V45.7733C159.744 45.5956 159.833 45.5067 160.011 45.5067H161.371C161.549 45.5067 161.638 45.5956 161.638 45.7733V47.5067C161.638 47.56 161.647 47.5867 161.664 47.5867C161.7 47.5867 161.727 47.5689 161.744 47.5333C162.047 46.8578 162.447 46.3333 162.944 45.96C163.46 45.5689 164.064 45.3733 164.758 45.3733ZM181.56 45.32C182.751 45.32 183.685 45.72 184.36 46.52C185.054 47.3022 185.4 48.3867 185.4 49.7733V58.7333C185.4 58.9111 185.311 59 185.134 59H183.8C183.623 59 183.534 58.9111 183.534 58.7333V50.04C183.534 49.0978 183.294 48.3511 182.814 47.8C182.351 47.2489 181.738 46.9733 180.974 46.9733C180.174 46.9733 179.525 47.2489 179.027 47.8C178.547 48.3333 178.307 49.0622 178.307 49.9867V58.7333C178.307 58.9111 178.218 59 178.04 59H176.68C176.503 59 176.414 58.9111 176.414 58.7333V50.04C176.414 49.0978 176.174 48.3511 175.694 47.8C175.231 47.2489 174.618 46.9733 173.854 46.9733C173.054 46.9733 172.414 47.2489 171.934 47.8C171.454 48.3333 171.214 49.0622 171.214 49.9867V58.7333C171.214 58.9111 171.125 59 170.947 59H169.587C169.409 59 169.32 58.9111 169.32 58.7333V45.7733C169.32 45.5956 169.409 45.5067 169.587 45.5067H170.947C171.125 45.5067 171.214 45.5956 171.214 45.7733V46.7067C171.214 46.7422 171.223 46.7689 171.24 46.7867C171.276 46.7867 171.311 46.7689 171.347 46.7333C171.703 46.2533 172.156 45.8978 172.707 45.6667C173.258 45.4356 173.845 45.32 174.467 45.32C175.249 45.32 175.934 45.4978 176.52 45.8533C177.107 46.2089 177.551 46.7067 177.854 47.3467C177.889 47.4356 177.934 47.4356 177.987 47.3467C178.343 46.6533 178.831 46.1467 179.454 45.8267C180.094 45.4889 180.796 45.32 181.56 45.32ZM194.211 59.2133C192.913 59.2133 191.847 58.8667 191.011 58.1733C190.175 57.4622 189.669 56.5111 189.491 55.32C189.384 54.4311 189.331 53.4 189.331 52.2267C189.331 51.0533 189.384 50.04 189.491 49.1867C189.651 48.0133 190.149 47.0711 190.984 46.36C191.838 45.6489 192.913 45.2933 194.211 45.2933C195.509 45.2933 196.575 45.6489 197.411 46.36C198.264 47.0711 198.771 48.0133 198.931 49.1867C199.038 49.8978 199.091 50.9111 199.091 52.2267C199.091 53.5778 199.038 54.6089 198.931 55.32C198.771 56.5111 198.264 57.4622 197.411 58.1733C196.575 58.8667 195.509 59.2133 194.211 59.2133ZM194.211 57.56C194.975 57.56 195.615 57.3289 196.131 56.8667C196.664 56.3867 196.984 55.7556 197.091 54.9733C197.162 54.3156 197.198 53.4089 197.198 52.2533C197.198 51.08 197.162 50.1733 197.091 49.5333C197.002 48.7511 196.691 48.1289 196.158 47.6667C195.642 47.1867 194.993 46.9467 194.211 46.9467C193.429 46.9467 192.78 47.1867 192.264 47.6667C191.749 48.1289 191.438 48.7511 191.331 49.5333C191.26 50.1733 191.224 51.08 191.224 52.2533C191.224 53.4267 191.26 54.3333 191.331 54.9733C191.42 55.7556 191.722 56.3867 192.238 56.8667C192.771 57.3289 193.429 57.56 194.211 57.56ZM208.517 45.32C209.761 45.32 210.739 45.72 211.45 46.52C212.179 47.3022 212.543 48.3778 212.543 49.7467V58.7333C212.543 58.9111 212.455 59 212.277 59H210.917C210.739 59 210.65 58.9111 210.65 58.7333V50.0133C210.65 49.0889 210.41 48.3511 209.93 47.8C209.45 47.2489 208.792 46.9733 207.957 46.9733C207.121 46.9733 206.446 47.2578 205.93 47.8267C205.432 48.3778 205.183 49.1244 205.183 50.0667V58.7333C205.183 58.9111 205.095 59 204.917 59H203.557C203.379 59 203.29 58.9111 203.29 58.7333V45.7733C203.29 45.5956 203.379 45.5067 203.557 45.5067H204.917C205.095 45.5067 205.183 45.5956 205.183 45.7733V46.8133C205.183 46.8489 205.192 46.8756 205.21 46.8933C205.246 46.9111 205.281 46.9022 205.317 46.8667C206.01 45.8356 207.077 45.32 208.517 45.32ZM218.181 43.0533C217.737 43.0533 217.372 42.9111 217.088 42.6267C216.821 42.3422 216.688 41.9867 216.688 41.56C216.688 41.1156 216.821 40.76 217.088 40.4933C217.372 40.2089 217.737 40.0667 218.181 40.0667C218.608 40.0667 218.964 40.2089 219.248 40.4933C219.532 40.76 219.675 41.1156 219.675 41.56C219.675 41.9867 219.532 42.3422 219.248 42.6267C218.964 42.9111 218.608 43.0533 218.181 43.0533ZM217.461 59C217.284 59 217.195 58.9111 217.195 58.7333V45.7733C217.195 45.5956 217.284 45.5067 217.461 45.5067H218.821C218.999 45.5067 219.088 45.5956 219.088 45.7733V58.7333C219.088 58.9111 218.999 59 218.821 59H217.461ZM228.459 59.2133C227.179 59.2133 226.122 58.8667 225.286 58.1733C224.45 57.4622 223.944 56.5111 223.766 55.32C223.659 54.4133 223.606 53.3822 223.606 52.2267C223.606 51.32 223.659 50.2978 223.766 49.16C223.926 48.0044 224.433 47.0711 225.286 46.36C226.139 45.6489 227.197 45.2933 228.459 45.2933C229.722 45.2933 230.779 45.6311 231.633 46.3067C232.504 46.9822 233.01 47.8267 233.153 48.84L233.233 49.4V49.4533C233.233 49.5244 233.206 49.5867 233.153 49.64C233.117 49.6756 233.064 49.6933 232.993 49.6933L231.633 49.7733C231.473 49.7733 231.375 49.6933 231.339 49.5333C231.339 49.3733 231.33 49.2667 231.313 49.2133C231.224 48.5911 230.913 48.0578 230.379 47.6133C229.864 47.1689 229.224 46.9467 228.459 46.9467C227.677 46.9467 227.028 47.1867 226.513 47.6667C226.015 48.1467 225.722 48.7689 225.633 49.5333C225.544 50.2978 225.499 51.2044 225.499 52.2533C225.499 53.32 225.544 54.2356 225.633 55C225.722 55.7822 226.015 56.4044 226.513 56.8667C227.028 57.3289 227.677 57.56 228.459 57.56C229.242 57.56 229.89 57.3378 230.406 56.8933C230.939 56.4489 231.242 55.9067 231.313 55.2667L231.339 55.0533C231.375 54.8578 231.473 54.7778 231.633 54.8133L232.966 54.92C233.126 54.9556 233.206 55.0356 233.206 55.16V55.2667C233.206 55.3378 233.188 55.4444 233.153 55.5867C233.028 56.6356 232.53 57.5067 231.659 58.2C230.806 58.8756 229.739 59.2133 228.459 59.2133Z" fill="#181818"/>
<path d="M20.2738 4.61293L3.37891 59.0145" stroke="#181818" stroke-width="4.05477" stroke-linecap="round"/>
<path d="M20.2738 4.61293L3.37891 59.0145" stroke="#181818" stroke-width="4.05477" stroke-linecap="round"/>
<g filter="url(#filter0_d_439_661)">
<path d="M20.1916 4.61293C8.02729 46.2419 26.0182 32.6584 51.954 9.0056" stroke="#181818" stroke-width="4.05477" stroke-linecap="round"/>
</g>
<path d="M19.2599 4.16667C2.48643 65.6453 55.9277 21.8512 73.9993 7.32604" stroke="#181818" stroke-width="0.675795" stroke-linecap="round"/>
<path d="M3.04102 58.6765C16.5569 16.5069 28.7212 29.9551 55.753 52.2564" stroke="#181818" stroke-width="4.05477" stroke-linecap="round"/>
<path d="M3.37891 59.0145C16.8948 16.8449 36.4929 29.6174 52.0362 55.9734" stroke="#181818" stroke-width="4.05477" stroke-linecap="round"/>
<g filter="url(#filter1_d_439_661)">
<path d="M3.04102 58.5682C12.9867 16.7253 70.4229 41.5637 82.1091 58.5682" stroke="#181818" stroke-width="0.675795" stroke-linecap="round"/>
</g>
<g filter="url(#filter2_d_439_661)">
<path d="M3.04102 58.5682C12.9867 17.3808 66.196 36.2197 82.1091 58.5682" stroke="#181818" stroke-width="0.675795" stroke-linecap="round"/>
</g>
<circle cx="54.4015" cy="54.6218" r="4.73057" fill="#181818"/>
<defs>
<filter id="filter0_d_439_661" x="11.5751" y="2.58502" width="45.1095" height="36.2569" filterUnits="userSpaceOnUse" color-interpolation-filters="sRGB">
<feFlood flood-opacity="0" result="BackgroundImageFix"/>
<feColorMatrix in="SourceAlpha" type="matrix" values="0 0 0 0 0 0 0 0 0 0 0 0 0 0 0 0 0 0 127 0" result="hardAlpha"/>
<feOffset dy="2.70318"/>
<feGaussianBlur stdDeviation="1.35159"/>
<feComposite in2="hardAlpha" operator="out"/>
<feColorMatrix type="matrix" values="0 0 0 0 0 0 0 0 0 0 0 0 0 0 0 0 0 0 0.25 0"/>
<feBlend mode="normal" in2="BackgroundImageFix" result="effect1_dropShadow_439_661"/>
<feBlend mode="normal" in="SourceGraphic" in2="effect1_dropShadow_439_661" result="shape"/>
</filter>
<filter id="filter1_d_439_661" x="-5.62668e-05" y="35.2533" width="85.15" height="29.0593" filterUnits="userSpaceOnUse" color-interpolation-filters="sRGB">
<feFlood flood-opacity="0" result="BackgroundImageFix"/>
<feColorMatrix in="SourceAlpha" type="matrix" values="0 0 0 0 0 0 0 0 0 0 0 0 0 0 0 0 0 0 127 0" result="hardAlpha"/>
<feOffset dy="2.70318"/>
<feGaussianBlur stdDeviation="1.35159"/>
<feComposite in2="hardAlpha" operator="out"/>
<feColorMatrix type="matrix" values="0 0 0 0 0 0 0 0 0 0 0 0 0 0 0 0 0 0 0.25 0"/>
<feBlend mode="normal" in2="BackgroundImageFix" result="effect1_dropShadow_439_661"/>
<feBlend mode="normal" in="SourceGraphic" in2="effect1_dropShadow_439_661" result="shape"/>
</filter>
<filter id="filter2_d_439_661" x="-5.62668e-05" y="33.9017" width="85.15" height="30.4108" filterUnits="userSpaceOnUse" color-interpolation-filters="sRGB">
<feFlood flood-opacity="0" result="BackgroundImageFix"/>
<feColorMatrix in="SourceAlpha" type="matrix" values="0 0 0 0 0 0 0 0 0 0 0 0 0 0 0 0 0 0 127 0" result="hardAlpha"/>
<feOffset dy="2.70318"/>
<feGaussianBlur stdDeviation="1.35159"/>
<feComposite in2="hardAlpha" operator="out"/>
<feColorMatrix type="matrix" values="0 0 0 0 0 0 0 0 0 0 0 0 0 0 0 0 0 0 0.25 0"/>
<feBlend mode="normal" in2="BackgroundImageFix" result="effect1_dropShadow_439_661"/>
<feBlend mode="normal" in="SourceGraphic" in2="effect1_dropShadow_439_661" result="shape"/>
</filter>
</defs>
</svg>
